<svg xmlns="http://www.w3.org/2000/svg" viewBox="0 0 1400 900">
  <defs>
    <style>
      .title { font: bold 20px sans-serif; fill: #1F2937; }
      .subtitle { font: 14px sans-serif; fill: #6B7280; }
      .section-title { font: bold 16px sans-serif; fill: #1F2937; }
      .label { font: 13px sans-serif; fill: #374151; }
      .label-small { font: 11px sans-serif; fill: #6B7280; }
      .header { fill: #2563EB; }
      .panel { fill: #F3F4F6; stroke: #D1D5DB; stroke-width: 1; }
      .card { fill: #FFFFFF; stroke: #E5E7EB; stroke-width: 1; }
      .progress-bg { fill: #E5E7EB; }
      .progress-bar { fill: #16A34A; }
      .progress-bar-warning { fill: #F59E0B; }
      .button-primary { fill: #2563EB; }
      .button-secondary { fill: #6B7280; }
      .wbs-item { fill: #FFFFFF; stroke: #D1D5DB; stroke-width: 1; }
      .wbs-completed { fill: #DCFCE7; stroke: #16A34A; stroke-width: 1; }
      .wbs-pending { fill: #F9FAFB; stroke: #D1D5DB; stroke-width: 1; }
    </style>
  </defs>

  <!-- Title -->
  <text x="700" y="35" class="title" text-anchor="middle">Dashbord Layout - Desktop (1024px+)</text>
  <text x="700" y="55" class="subtitle" text-anchor="middle">Hovedvisning med WBS-liste og prosjektbegrensninger</text>

  <!-- Browser chrome -->
  <rect x="50" y="80" width="1300" height="40" rx="8" fill="#F3F4F6" stroke="#D1D5DB" stroke-width="1"/>
  <circle cx="70" cy="100" r="6" fill="#EF4444"/>
  <circle cx="90" cy="100" r="6" fill="#F59E0B"/>
  <circle cx="110" cy="100" r="6" fill="#10B981"/>
  <text x="140" y="105" class="label-small">localhost:3000/dashboard</text>

  <!-- Header -->
  <rect x="50" y="120" width="1300" height="60" class="header"/>
  <text x="70" y="150" class="section-title" fill="#FFFFFF">Nye Hædda Barneskole</text>
  <text x="70" y="167" class="label-small" fill="#DBEAFE">Prosjektplanleggings-simulator</text>

  <!-- User menu -->
  <rect x="1180" y="135" width="140" height="30" rx="4" fill="#1D4ED8"/>
  <text x="1250" y="155" class="label" text-anchor="middle" fill="#FFFFFF">👤 Bruker ▼</text>

  <!-- Help button -->
  <rect x="1030" y="135" width="120" height="30" rx="4" fill="#3B82F6"/>
  <text x="1090" y="155" class="label" text-anchor="middle" fill="#FFFFFF">❓ Hjelp</text>

  <!-- Main container -->
  <rect x="50" y="180" width="1300" height="660" fill="#FFFFFF"/>

  <!-- Constraint Panel -->
  <rect x="80" y="210" width="1240" height="120" rx="8" class="panel"/>
  <text x="100" y="235" class="section-title">Prosjektbegrensninger</text>

  <!-- Budget progress -->
  <text x="120" y="265" class="label">Budsjett:</text>
  <rect x="120" y="275" width="500" height="24" rx="4" class="progress-bg"/>
  <rect x="120" y="275" width="320" height="24" rx="4" class="progress-bar"/>
  <text x="370" y="292" class="label-small" fill="#FFFFFF">450 / 700 MNOK (64%)</text>

  <!-- Deadline info -->
  <text x="700" y="265" class="label">Frist: 15. mai 2026</text>
  <text x="700" y="285" class="label" fill="#16A34A">Forventet: 10. april 2026 ✓</text>
  <text x="700" y="305" class="label-small">35 dager sikkerhetsmargin</text>

  <!-- Quick stats -->
  <rect x="80" y="350" width="1240" height="50" fill="#F9FAFB" stroke="#E5E7EB" stroke-width="1"/>
  <text x="120" y="378" class="label">Fremdrift: 8 / 15 WBS-oppgaver fullført</text>
  <text x="600" y="378" class="label">|</text>
  <text x="650" y="378" class="label">32 forhandlinger gjennomført</text>
  <text x="1000" y="378" class="label">|</text>
  <text x="1050" y="378" class="label">Sist lagret: 14:32</text>

  <!-- Content area: WBS List (left) + Actions (right) -->
  <!-- WBS List Panel -->
  <rect x="80" y="420" width="820" height="400" rx="8" class="card"/>
  <text x="100" y="450" class="section-title">WBS-oppgaver</text>

  <!-- Filter tabs -->
  <rect x="100" y="465" width="80" height="28" rx="4" fill="#2563EB"/>
  <text x="140" y="483" class="label-small" fill="#FFFFFF" text-anchor="middle">Alle (15)</text>
  <rect x="185" y="465" width="100" height="28" rx="4" fill="#E5E7EB"/>
  <text x="235" y="483" class="label-small" text-anchor="middle">Fullført (8)</text>
  <rect x="290" y="465" width="110" height="28" rx="4" fill="#E5E7EB"/>
  <text x="345" y="483" class="label-small" text-anchor="middle">Gjenstående (7)</text>

  <!-- WBS Item 1 (Completed) -->
  <rect x="100" y="510" width="780" height="60" rx="6" class="wbs-completed"/>
  <text x="120" y="535" class="label" font-weight="bold">✅ 1.3.1 Grunnarbeid</text>
  <text x="120" y="552" class="label-small">Varighet: 60 dager | Kostnad: 105 MNOK | Start: 01.01.2025</text>
  <rect x="780" y="520" width="80" height="30" rx="4" fill="#16A34A"/>
  <text x="820" y="540" class="label-small" fill="#FFFFFF" text-anchor="middle">Fullført</text>

  <!-- WBS Item 2 (Completed) -->
  <rect x="100" y="580" width="780" height="60" rx="6" class="wbs-completed"/>
  <text x="120" y="605" class="label" font-weight="bold">✅ 1.3.2 Fundamentering</text>
  <text x="120" y="622" class="label-small">Varighet: 45 dager | Kostnad: 60 MNOK | Start: 01.03.2025</text>
  <rect x="780" y="590" width="80" height="30" rx="4" fill="#16A34A"/>
  <text x="820" y="610" class="label-small" fill="#FFFFFF" text-anchor="middle">Fullført</text>

  <!-- WBS Item 3 (Pending) -->
  <rect x="100" y="650" width="780" height="60" rx="6" class="wbs-pending"/>
  <text x="120" y="675" class="label" font-weight="bold">⭕ 1.4.1 Råbygg</text>
  <text x="120" y="692" class="label-small" fill="#9CA3AF">Ingen data ennå - Forhandl med leverandør</text>
  <rect x="760" y="660" width="100" height="30" rx="4" fill="#2563EB"/>
  <text x="810" y="680" class="label-small" fill="#FFFFFF" text-anchor="middle">Forhandl →</text>

  <!-- WBS Item 4 (Pending) -->
  <rect x="100" y="720" width="780" height="60" rx="6" class="wbs-pending"/>
  <text x="120" y="745" class="label" font-weight="bold">⭕ 1.4.2 Tak og vegger</text>
  <text x="120" y="762" class="label-small" fill="#9CA3AF">Avhenger av: 1.4.1</text>
  <rect x="760" y="730" width="100" height="30" rx="4" fill="#9CA3AF"/>
  <text x="810" y="750" class="label-small" fill="#FFFFFF" text-anchor="middle">Låst</text>

  <!-- Scroll indicator -->
  <text x="490" y="805" class="label-small" fill="#9CA3AF">⬇ Rull for å se flere WBS-oppgaver ⬇</text>

  <!-- Actions Panel (right) -->
  <rect x="920" y="420" width="400" height="400" rx="8" class="card"/>
  <text x="940" y="450" class="section-title">Handlinger</text>

  <!-- Export button -->
  <rect x="940" y="470" width="360" height="45" rx="6" fill="#10B981"/>
  <text x="1120" y="497" class="label" fill="#FFFFFF" text-anchor="middle">📥 Eksporter Plan (JSON)</text>

  <!-- Submit button -->
  <rect x="940" y="530" width="360" height="50" rx="6" class="button-primary"/>
  <text x="1120" y="560" class="section-title" fill="#FFFFFF" text-anchor="middle">✅ Send Inn Plan</text>

  <!-- Help text -->
  <rect x="940" y="600" width="360" height="140" rx="6" fill="#FEF3C7" stroke="#F59E0B" stroke-width="1"/>
  <text x="960" y="625" class="label" font-weight="bold">💡 Tips:</text>
  <text x="960" y="650" class="label-small">• Forhandl med alle 15 leverandører</text>
  <text x="960" y="670" class="label-small">• Hold budsjettet under 700 MNOK</text>
  <text x="960" y="690" class="label-small">• Sørg for sluttdato før 15. mai 2026</text>
  <text x="960" y="710" class="label-small">• Sjekk avhengigheter mellom oppgaver</text>
  <text x="960" y="730" class="label-small">• Lagres automatisk i nettleseren</text>

  <!-- Reset button -->
  <rect x="940" y="760" width="360" height="40" rx="6" fill="#DC2626"/>
  <text x="1120" y="785" class="label" fill="#FFFFFF" text-anchor="middle">🔄 Nullstill Simulering</text>

  <!-- Responsive note -->
  <text x="700" y="870" class="label-small" fill="#9CA3AF" text-anchor="middle">Responsiv: På tablet (768px) vises WBS-listen og handlinger vertikalt</text>
</svg>