<svg width="1000" height="800" xmlns="http://www.w3.org/2000/svg">
  <defs>
    <style>
      text { font-family: 'Inter', sans-serif; }
      .title-main { font-size: 24px; font-weight: 700; fill: #111827; }
      .subtitle-main { font-size: 14px; font-weight: 500; fill: #6B7280; }
      .heading { font-size: 14px; font-weight: 600; fill: #111827; }
      .label { font-size: 12px; font-weight: 500; fill: #374151; }
      .value { font-size: 12px; font-weight: 600; fill: #111827; }
      .small { font-size: 10px; fill: #6B7280; }

      .card { fill: #FFFFFF; stroke: #E5E7EB; stroke-width: 1; }
      .card-hover { fill: #F9FAFB; stroke: #3B82F6; stroke-width: 2; }
      .status-pending { fill: #F3F4F6; }
      .status-negotiating { fill: #FEF3C7; }
      .status-committed { fill: #D1FAE5; }
      .button { fill: #3B82F6; }
      .button-text { font-size: 11px; font-weight: 600; fill: #FFFFFF; }
      .icon-circle { fill: #DBEAFE; }
    </style>
  </defs>

  <!-- Title -->
  <text x="500" y="40" text-anchor="middle" class="title-main">Component - WBS Task Card</text>
  <text x="500" y="65" text-anchor="middle" class="subtitle-main">Various states and interactions for Work Breakdown Structure cards</text>

  <!-- State 1: Pending (Not started) -->
  <g transform="translate(50, 120)">
    <text x="0" y="0" class="heading">Tilstand 1: Not Started (Pending)</text>

    <g transform="translate(0, 20)">
      <rect x="0" y="0" width="420" height="150" rx="8" class="card"/>

      <!-- Status indicator -->
      <circle cx="20" cy="20" r="8" fill="#9CA3AF"/>

      <!-- WBS ID and Title -->
      <g transform="translate(40, 15)">
        <text x="0" y="0" class="heading">1.3.1 - Foundation Work</text>
        <text x="0" y="18" class="small">Excavation, foundation wall, drainage, foundations</text>
      </g>

      <!-- Dependencies -->
      <g transform="translate(20, 55)">
        <text x="0" y="0" class="label">Dependencies:</text>
        <text x="115" y="0" class="small">1.1 Design (completed ✓)</text>
      </g>

      <!-- Requirements -->
      <g transform="translate(20, 80)">
        <text x="0" y="0" class="label">Requirements:</text>
        <text x="115" y="0" class="small">F-003 (Fundamentering), K-023 (Kvalitet)</text>
      </g>

      <!-- Actions -->
      <g transform="translate(20, 115)">
        <rect x="0" y="0" width="150" height="30" rx="6" class="button"/>
        <text x="75" y="20" text-anchor="middle" class="button-text">Negotiate →</text>

        <text x="170" y="20" class="small" fill="#3B82F6">📄 View details</text>
      </g>
    </g>
  </g>

  <!-- State 2: Negotiating -->
  <g transform="translate(530, 120)">
    <text x="0" y="0" class="heading">Tilstand 2: Negotiating (Negotiating)</text>

    <g transform="translate(0, 20)">
      <rect x="0" y="0" width="420" height="150" rx="8" class="card" stroke="#F59E0B" stroke-width="2"/>

      <!-- Status indicator -->
      <circle cx="20" cy="20" r="8" fill="#F59E0B"/>

      <g transform="translate(40, 15)">
        <text x="0" y="0" class="heading">1.3.1 - Foundation Work</text>
        <text x="0" y="18" class="small">Negotiating with Bjørn Eriksen...</text>
      </g>

      <!-- Current offer -->
      <g transform="translate(20, 55)">
        <text x="0" y="0" class="label">Latest offer:</text>
        <text x="115" y="0" class="value" fill="#F59E0B">120 MNOK, 3 months</text>
      </g>

      <!-- Message count -->
      <g transform="translate(20, 80)">
        <text x="0" y="0" class="label">Messages:</text>
        <text x="115" y="0" class="small">4 exchanged</text>
      </g>

      <!-- Actions -->
      <g transform="translate(20, 115)">
        <rect x="0" y="0" width="150" height="30" rx="6" class="button"/>
        <text x="75" y="20" text-anchor="middle" class="button-text">Continue chat →</text>

        <text x="170" y="20" class="small" fill="#DC2626">Cancel negotiation</text>
      </g>
    </g>
  </g>

  <!-- State 3: Committed -->
  <g transform="translate(50, 330)">
    <text x="0" y="0" class="heading">Tilstand 3: Committed (Committed)</text>

    <g transform="translate(0, 20)">
      <rect x="0" y="0" width="420" height="150" rx="8" class="card" stroke="#10B981" stroke-width="2"/>

      <!-- Status indicator -->
      <circle cx="20" cy="20" r="10" fill="#10B981"/>
      <text x="20" y="25" text-anchor="middle" fill="#FFFFFF" font-size="12" font-weight="700">✓</text>

      <g transform="translate(40, 15)">
        <text x="0" y="0" class="heading">1.3.1 - Foundation Work</text>
        <text x="0" y="18" class="small">Bjørn Eriksen | Eriksen Bygg AS</text>
      </g>

      <!-- Cost and Duration -->
      <g transform="translate(20, 55)">
        <text x="0" y="0" class="label">Cost:</text>
        <text x="115" y="0" class="value" fill="#10B981">105 MNOK</text>

        <text x="220" y="0" class="label">Duration:</text>
        <text x="285" y="0" class="value">2.5 months</text>
      </g>

      <!-- Dates -->
      <g transform="translate(20, 80)">
        <text x="0" y="0" class="label">Time period:</text>
        <text x="115" y="0" class="small">15. jan 2025 → 1. apr 2025</text>
      </g>

      <!-- Actions -->
      <g transform="translate(20, 115)">
        <rect x="0" y="0" width="150" height="30" rx="6" fill="#FFFFFF" stroke="#D1D5DB" stroke-width="1"/>
        <text x="75" y="20" text-anchor="middle" class="label" fill="#374151">Renegotiate</text>

        <text x="170" y="20" class="small" fill="#3B82F6">📄 View details</text>
      </g>
    </g>
  </g>

  <!-- State 4: Hover state -->
  <g transform="translate(530, 330)">
    <text x="0" y="0" class="heading">Tilstand 4: Hover (Pending)</text>

    <g transform="translate(0, 20)">
      <rect x="0" y="0" width="420" height="150" rx="8" class="card-hover"/>

      <circle cx="20" cy="20" r="8" fill="#9CA3AF"/>

      <g transform="translate(40, 15)">
        <text x="0" y="0" class="heading">2.2 - Windows and Doors</text>
        <text x="0" y="18" class="small">Installation of windows and exterior doors</text>
      </g>

      <g transform="translate(20, 55)">
        <text x="0" y="0" class="label">Dependencies:</text>
        <text x="115" y="0" class="small" fill="#EF4444">2.1 Shell Construction (not completed)</text>
      </g>

      <g transform="translate(20, 80)">
        <text x="0" y="0" class="label">Requirements:</text>
        <text x="115" y="0" class="small">V-008 (Vinduer), D-004 (Dører)</text>
      </g>

      <!-- Actions (highlighted on hover) -->
      <g transform="translate(20, 115)">
        <rect x="0" y="0" width="150" height="30" rx="6" class="button"/>
        <text x="75" y="20" text-anchor="middle" class="button-text">Negotiate →</text>

        <text x="170" y="20" class="small" fill="#3B82F6" font-weight="600">📄 View details</text>
      </g>
    </g>
  </g>

  <!-- Annotations -->
  <g transform="translate(50, 540)">
    <text x="0" y="0" class="heading">Status-indikator farger:</text>

    <g transform="translate(0, 25)">
      <circle cx="8" cy="0" r="8" fill="#9CA3AF"/>
      <text x="25" y="5" class="small">Gray: Not Started (pending)</text>

      <circle cx="8" cy="25" r="8" fill="#F59E0B"/>
      <text x="25" y="30" class="small">Yellow: Negotiating (negotiating)</text>

      <circle cx="8" cy="50" r="10" fill="#10B981"/>
      <text x="30" y="55" class="small">Green + ✓: Committed (committed)</text>
    </g>

    <text x="0" y="100" class="heading">Interactions:</text>
    <text x="0" y="125" class="small">• Click "Negotiate" → Leverandør-valg modal (nhb-16)</text>
    <text x="0" y="145" class="small">• Click "Continue chat" → Chat-side (nhb-09)</text>
    <text x="0" y="165" class="small">• Click "Renegotiate" → Confirm modal → Ny forhandling</text>
    <text x="0" y="185" class="small">• Click "View details" → Ekspander card eller åpne modal</text>
    <text x="0" y="205" class="small">• Hover → Blue border, highlight buttons</text>
  </g>

  <g transform="translate(530, 540)">
    <text x="0" y="0" class="heading">Component used in:</text>
    <text x="0" y="25" class="small">• Dashboard (nhb-08): List of all 15 WBS tasks</text>
    <text x="0" y="45" class="small">• Filterable and sortable list</text>
    <text x="0" y="65" class="small">• Real-time update on commitment</text>

    <text x="0" y="100" class="heading">Validation:</text>
    <text x="0" y="125" class="small">• "Negotiate"-button disabled if dependencies</text>
    <text x="0" y="143" class="small">  are not completed (show tooltip with reason)</text>
    <text x="0" y="163" class="small">• Show warning if budget/timeline at risk</text>
  </g>

  <!-- Footer -->
  <text x="500" y="780" text-anchor="middle" class="small" fill="#9CA3AF">nhb-13-component-wbs-card.svg | WBS oppgavecard komponenter and tilstander</text>
</svg>
