<?xml version="1.0" encoding="UTF-8"?>
<svg xmlns="http://www.w3.org/2000/svg" viewBox="0 0 1440 1100" style="background:#f9fafb">
  <defs>
    <style>
      .dash-header{font-family:'Inter',-apple-system,sans-serif;font-size:20px;font-weight:700;fill:#111827}
      .dash-label{font-family:'Inter',-apple-system,sans-serif;font-size:13px;font-weight:600;fill:#374151}
      .dash-value{font-family:'Inter',-apple-system,sans-serif;font-size:15px;font-weight:600;fill:#111827}
      .dash-desc{font-family:'Inter',-apple-system,sans-serif;font-size:12px;fill:#6b7280}
      .dash-section{font-family:'Inter',-apple-system,sans-serif;font-size:14px;font-weight:700;fill:#3b82f6}
      .dash-wbs-code{font-family:'Inter',-apple-system,sans-serif;font-size:12px;font-weight:600;fill:#111827}
      .dash-wbs-name{font-family:'Inter',-apple-system,sans-serif;font-size:13px;fill:#374151}
      .dash-wbs-details{font-family:'Inter',-apple-system,sans-serif;font-size:11px;fill:#6b7280}
      .dash-btn-text{font-family:'Inter',-apple-system,sans-serif;font-size:12px;font-weight:600}
    </style>
  </defs>

  <!-- Header Bar -->
  <rect width="1440" height="70" fill="#fff"/>
  <line x1="0" y1="70" x2="1440" y2="70" stroke="#e5e7eb" stroke-width="1"/>

  <!-- Logo/Title -->
  <text x="40" y="45" class="dash-header">Nye Hædda Barneskole</text>

  <!-- User Menu -->
  <rect x="1280" y="25" width="120" height="36" fill="#f9fafb" stroke="#d1d5db" stroke-width="1" rx="6"/>
  <circle cx="1295" cy="43" r="10" fill="#9ca3af"/>
  <text x="1310" y="47" class="dash-desc" font-size="13">Student ▼</text>

  <!-- Help Button -->
  <rect x="1180" y="25" width="80" height="36" fill="#f9fafb" stroke="#d1d5db" stroke-width="1" rx="6"/>
  <text x="1220" y="47" text-anchor="middle" class="dash-desc" font-size="13">Hjelp</text>

  <!-- Budget Constraints Panel -->
  <rect x="40" y="110" width="900" height="240" fill="#fff" stroke="#e5e7eb" stroke-width="1" rx="8"/>

  <text x="60" y="140" class="dash-label">PROSJEKTBEGRENSNINGER</text>

  <!-- Budget Display - 3 Tiers -->
  <!-- Tier 1: Available (Tilgjengelig) -->
  <text x="60" y="170" class="dash-desc">Tilgjengelig (3 forhandlbare pakker):</text>
  <rect x="60" y="178" width="860" height="24" fill="#e5e7eb" rx="12"/>
  <rect x="60" y="178" width="154.8" height="24" fill="#10b981" rx="12"/>
  <text x="70" y="195" class="dash-desc" fill="#fff" font-weight="600">55 / 310 MNOK (18%)</text>

  <!-- Tier 2: Locked (Låst) -->
  <text x="60" y="225" class="dash-desc">Låst (12 kontraktfestede leverandører):</text>
  <text x="60" y="245" class="dash-value">390 MNOK</text>

  <!-- Tier 3: Total -->
  <text x="60" y="275" class="dash-desc">Totalt prosjektbudsjett:</text>
  <rect x="60" y="283" width="860" height="24" fill="#e5e7eb" rx="12"/>
  <rect x="60" y="283" width="546.5" height="24" fill="#10b981" rx="12"/>
  <text x="70" y="300" class="dash-desc" fill="#fff" font-weight="600">445 / 700 MNOK (64%)</text>

  <!-- Warning Box -->
  <rect x="60" y="320" width="860" height="20" fill="#fef3c7" stroke="#f59e0b" stroke-width="1" rx="4"/>
  <text x="70" y="334" class="dash-desc" fill="#92400e" font-weight="600">⚠ Gjenstående baseline: 285 MNOK | Gjenstående budsjett: 255 MNOK | Underskudd: 30 MNOK</text>

  <!-- Deadline -->
  <text x="500" y="170" class="dash-desc">Frist:</text>
  <text x="500" y="190" class="dash-value">15. mai 2026</text>
  <text x="500" y="225" class="dash-desc">Forventet ferdigstillelse:</text>
  <text x="500" y="245" class="dash-value" fill="#10b981">10. april 2026 ✓</text>

  <!-- Progress Stats -->
  <rect x="40" y="370" width="900" height="50" fill="#eff6ff" stroke="#93c5fd" stroke-width="1" rx="6"/>
  <text x="60" y="400" class="dash-desc">Fremdrift: <tspan font-weight="600">1 / 3</tspan> forhandlbare pakker fullført  |  <tspan font-weight="600">5</tspan> forhandlinger gjennomført</text>

  <!-- WBS List Panel -->
  <rect x="40" y="440" width="900" height="600" fill="#fff" stroke="#e5e7eb" stroke-width="1" rx="8"/>

  <text x="60" y="470" class="dash-label">WBS-ARBEIDSPAKKER</text>

  <!-- Section: Negotiable -->
  <text x="60" y="505" class="dash-section">FORHANDLBARE (3)</text>

  <!-- WBS Item 1 - Pending -->
  <rect x="60" y="520" width="860" height="75" fill="#f9fafb" stroke="#3b82f6" stroke-width="2" rx="6"/>
  <circle cx="80" cy="557" r="6" fill="#d1d5db"/>
  <rect x="100" y="528" width="16" height="16" fill="#3b82f6" rx="2"/>
  <text x="130" y="543" class="dash-wbs-code">1.3.1 Grunnarbeid</text>
  <rect x="350" y="532" width="110" height="20" fill="#dbeafe" stroke="#3b82f6" stroke-width="1" rx="10"/>
  <text x="405" y="546" text-anchor="middle" class="dash-desc" fill="#1e40af" font-size="10">💬 Kan forhandles</text>
  <text x="130" y="560" class="dash-wbs-details">Baseline: 105 MNOK, 2.5 mnd</text>
  <text x="130" y="575" class="dash-desc" fill="#f59e0b" font-weight="600">⚠ Må forhandles ned for å holde budsjett</text>
  <rect x="130" y="580" width="150" height="30" fill="#3b82f6" stroke="#2563eb" stroke-width="1" rx="4"/>
  <text x="205" y="600" text-anchor="middle" class="dash-btn-text" fill="#fff">Kontakt leverandør/eier</text>

  <!-- WBS Item 2 - Completed -->
  <rect x="60" y="610" width="860" height="75" fill="#f0fdf4" stroke="#10b981" stroke-width="2" rx="6"/>
  <circle cx="80" cy="647" r="6" fill="#10b981"/>
  <rect x="100" y="618" width="16" height="16" fill="#3b82f6" rx="2"/>
  <text x="130" y="633" class="dash-wbs-code">1.3.2 Fundamentering</text>
  <rect x="350" y="622" width="80" height="20" fill="#d1fae5" stroke="#10b981" stroke-width="1" rx="10"/>
  <text x="390" y="636" text-anchor="middle" class="dash-desc" fill="#047857" font-size="10">✓ Fullført</text>
  <text x="130" y="650" class="dash-wbs-details">Baseline: 60 MNOK → Forhandlet: 55 MNOK, 2.5 mnd</text>
  <text x="130" y="665" class="dash-desc" fill="#059669" font-weight="600">✓ Spart 5 MNOK | Leverandør: Kari Andersen</text>
  <rect x="130" y="670" width="100" height="30" fill="#f3f4f6" stroke="#d1d5db" stroke-width="1" rx="4"/>
  <text x="180" y="690" text-anchor="middle" class="dash-btn-text" fill="#374151">Reforhandle</text>

  <!-- WBS Item 3 - Pending -->
  <rect x="60" y="700" width="860" height="75" fill="#f9fafb" stroke="#3b82f6" stroke-width="2" rx="6"/>
  <circle cx="80" cy="737" r="6" fill="#d1d5db"/>
  <rect x="100" y="708" width="16" height="16" fill="#3b82f6" rx="2"/>
  <text x="130" y="723" class="dash-wbs-code">1.4.1 Råbygg</text>
  <rect x="350" y="712" width="110" height="20" fill="#dbeafe" stroke="#3b82f6" stroke-width="1" rx="10"/>
  <text x="405" y="726" text-anchor="middle" class="dash-desc" fill="#1e40af" font-size="10">💬 Kan forhandles</text>
  <text x="130" y="740" class="dash-wbs-details">Baseline: 180 MNOK, 4 mnd</text>
  <text x="130" y="755" class="dash-desc" fill="#f59e0b" font-weight="600">⚠ Må forhandles ned for å holde budsjett</text>
  <rect x="130" y="760" width="150" height="30" fill="#3b82f6" stroke="#2563eb" stroke-width="1" rx="4"/>
  <text x="205" y="780" text-anchor="middle" class="dash-btn-text" fill="#fff">Kontakt leverandør/eier</text>

  <!-- Section: Locked -->
  <text x="60" y="815" class="dash-section" fill="#6b7280">KONTRAKTFESTET (12)</text>

  <!-- Locked WBS Items (showing 3 of 12) -->
  <rect x="60" y="830" width="860" height="50" fill="#fafafa" stroke="#e5e7eb" stroke-width="1" rx="4" opacity="0.7"/>
  <text x="80" y="845" class="dash-wbs-code" fill="#9ca3af">🔒</text>
  <text x="110" y="848" class="dash-wbs-name" fill="#9ca3af">1.1 Prosjektering</text>
  <rect x="330" y="840" width="100" height="18" fill="#f3f4f6" stroke="#d1d5db" stroke-width="1" rx="8"/>
  <text x="380" y="852" text-anchor="middle" class="dash-desc" fill="#6b7280" font-size="10">Kontraktfestet</text>
  <text x="110" y="868" class="dash-wbs-details" fill="#9ca3af">30 MNOK, 2 mnd | Arkitekt AS (forhåndsbestilt)</text>

  <rect x="60" y="890" width="860" height="50" fill="#fafafa" stroke="#e5e7eb" stroke-width="1" rx="4" opacity="0.7"/>
  <text x="80" y="905" class="dash-wbs-code" fill="#9ca3af">🔒</text>
  <text x="110" y="908" class="dash-wbs-name" fill="#9ca3af">1.2 RIB</text>
  <rect x="330" y="900" width="100" height="18" fill="#f3f4f6" stroke="#d1d5db" stroke-width="1" rx="8"/>
  <text x="380" y="912" text-anchor="middle" class="dash-desc" fill="#6b7280" font-size="10">Kontraktfestet</text>
  <text x="110" y="928" class="dash-wbs-details" fill="#9ca3af">25 MNOK, 1.5 mnd | Rigg AS (forhåndsbestilt)</text>

  <rect x="60" y="950" width="860" height="50" fill="#fafafa" stroke="#e5e7eb" stroke-width="1" rx="4" opacity="0.7"/>
  <text x="80" y="965" class="dash-wbs-code" fill="#9ca3af">🔒</text>
  <text x="110" y="968" class="dash-wbs-name" fill="#9ca3af">2.1 Elektrisk</text>
  <rect x="330" y="960" width="100" height="18" fill="#f3f4f6" stroke="#d1d5db" stroke-width="1" rx="8"/>
  <text x="380" y="972" text-anchor="middle" class="dash-desc" fill="#6b7280" font-size="10">Kontraktfestet</text>
  <text x="110" y="988" class="dash-wbs-details" fill="#9ca3af">35 MNOK, 2 mnd | Elektro AS (forhåndsbestilt)</text>

  <text x="60" y="1020" class="dash-desc" fill="#6b7280">... (9 flere låste pakker, totalt 390 MNOK)</text>

  <!-- Action Sidebar -->
  <rect x="980" y="110" width="420" height="930" fill="#fff" stroke="#e5e7eb" stroke-width="1" rx="8"/>

  <text x="1000" y="140" class="dash-label">HANDLINGER</text>

  <!-- Submit Plan Button -->
  <rect x="1000" y="160" width="380" height="48" fill="#3b82f6" stroke="#2563eb" stroke-width="1" rx="6"/>
  <text x="1190" y="188" text-anchor="middle" class="dash-btn-text" fill="#fff" font-size="14">Send inn plan</text>

  <!-- Export Session Button -->
  <rect x="1000" y="225" width="380" height="48" fill="#fff" stroke="#d1d5db" stroke-width="1" rx="6"/>
  <text x="1190" y="253" text-anchor="middle" class="dash-btn-text" fill="#374151" font-size="14">Eksporter økt</text>

  <!-- Help Button -->
  <rect x="1000" y="290" width="380" height="48" fill="#fff" stroke="#d1d5db" stroke-width="1" rx="6"/>
  <text x="1190" y="318" text-anchor="middle" class="dash-btn-text" fill="#374151" font-size="14">Hjelp</text>

  <!-- Budget Info Panel -->
  <rect x="1000" y="370" width="380" height="280" fill="#fee2e2" stroke="#ef4444" stroke-width="2" rx="6"/>
  <text x="1020" y="400" class="dash-label" fill="#991b1b">⚠ BUDSJETTUTFORDRING</text>

  <text x="1020" y="430" class="dash-desc" fill="#991b1b">Total budsjett: 700 MNOK</text>
  <text x="1020" y="450" class="dash-desc" fill="#991b1b">• Låst: 390 MNOK (12 pakker)</text>
  <text x="1020" y="470" class="dash-desc" fill="#991b1b">• Tilgjengelig: 310 MNOK</text>

  <line x1="1020" y1="485" x2="1360" y2="485" stroke="#ef4444" stroke-width="1"/>

  <text x="1020" y="505" class="dash-label" fill="#991b1b">BASELINE ESTIMATER:</text>
  <text x="1020" y="525" class="dash-desc" fill="#991b1b">• WBS 1.3.1: 105 MNOK</text>
  <text x="1020" y="542" class="dash-desc" fill="#991b1b">• WBS 1.3.2: 60 MNOK</text>
  <text x="1020" y="559" class="dash-desc" fill="#991b1b">• WBS 1.4.1: 180 MNOK</text>
  <text x="1020" y="579" class="dash-desc" fill="#991b1b" font-weight="600">Total: 345 MNOK</text>

  <line x1="1020" y1="594" x2="1360" y2="594" stroke="#ef4444" stroke-width="1"/>

  <text x="1020" y="614" class="dash-value" fill="#dc2626" font-size="16">UNDERSKUDD: 35 MNOK</text>
  <text x="1020" y="635" class="dash-desc" fill="#991b1b">(345 - 310 = 35 MNOK over)</text>

  <!-- Solution Panel -->
  <rect x="1000" y="670" width="380" height="180" fill="#fef3c7" stroke="#fbbf24" stroke-width="1" rx="6"/>
  <text x="1020" y="700" class="dash-label" fill="#92400e">LØSNINGER</text>

  <text x="1020" y="725" class="dash-desc" fill="#92400e" font-weight="600">1. Forhandle med leverandører:</text>
  <text x="1030" y="742" class="dash-desc" fill="#92400e">• Reduser kvalitet → lavere pris</text>
  <text x="1030" y="757" class="dash-desc" fill="#92400e">• Reduser scope → fjern funksjoner</text>

  <text x="1020" y="780" class="dash-desc" fill="#92400e" font-weight="600">2. Forhandle med Eier:</text>
  <text x="1030" y="797" class="dash-desc" fill="#92400e">• Be om budsjettøkning (+35 MNOK)</text>
  <text x="1030" y="812" class="dash-desc" fill="#92400e">• Krever god argumentasjon</text>

  <text x="1020" y="835" class="dash-desc" fill="#dc2626" font-weight="600">⚠ TID KAN IKKE FORLENGES!</text>

  <!-- AI Agents Panel -->
  <rect x="1000" y="870" width="380" height="160" fill="#eff6ff" stroke="#3b82f6" stroke-width="1" rx="6"/>
  <text x="1020" y="900" class="dash-label" fill="#1e40af">4 AI-AGENTER</text>

  <text x="1020" y="925" class="dash-desc" fill="#1e40af" font-weight="600">EIER (Kommune):</text>
  <text x="1030" y="942" class="dash-desc" fill="#1e40af">• Anne-Lise Berg</text>
  <text x="1030" y="957" class="dash-desc" fill="#1e40af">  Budsjett ↑ | Scope ↓ | Tid ✗</text>

  <text x="1020" y="980" class="dash-desc" fill="#1e40af" font-weight="600">LEVERANDØRER:</text>
  <text x="1030" y="997" class="dash-desc" fill="#1e40af">• Bjørn (Pris/kvalitet)</text>
  <text x="1030" y="1012" class="dash-desc" fill="#1e40af">• Kari (Tid/kost)</text>

  <!-- Footer -->
  <text x="720" y="1080" text-anchor="middle" class="dash-desc">v2.0 POC - Budsjett: 390 (låst) + 310 (tilgj.) = 700 MNOK | Baseline: 345 MNOK → Underskudd: 35 MNOK</text>
</svg>
