<svg viewBox="0 0 1800 1400" xmlns="http://www.w3.org/2000/svg">
  <defs>
    <style>
      .title { font-family: 'Inter', sans-serif; font-size: 28px; font-weight: 700; fill: #111827; }
      .subtitle { font-family: 'Inter', sans-serif; font-size: 14px; fill: #6B7280; }
      .heading { font-family: 'Inter', sans-serif; font-size: 16px; font-weight: 600; fill: #111827; }
      .body-text { font-family: 'Inter', sans-serif; font-size: 13px; fill: #374151; }
      .small-text { font-family: 'Inter', sans-serif; font-size: 11px; fill: #6B7280; }
      .month-text { font-family: 'Inter', sans-serif; font-size: 12px; font-weight: 600; fill: #374151; }
      .wbs-text { font-family: 'Inter', sans-serif; font-size: 12px; fill: #1F2937; }
      .critical-bar { fill: #EF4444; stroke: #991B1B; stroke-width: 1; }
      .non-critical-bar { fill: #9CA3AF; stroke: #6B7280; stroke-width: 1; }
      .locked-bar { fill: #D1D5DB; stroke: #9CA3AF; stroke-width: 1; }
      .milestone { fill: #F59E0B; stroke: #D97706; stroke-width: 2; }
      .today-line { stroke: #3B82F6; stroke-width: 2; stroke-dasharray: 5,5; }
      .grid-line { stroke: #E5E7EB; stroke-width: 1; }
    </style>
  </defs>

  <!-- Title -->
  <text x="900" y="40" class="title" text-anchor="middle">Gantt-Diagram - Nye Hædda Barneskole</text>
  <text x="900" y="65" class="subtitle" text-anchor="middle">Prosjekttidslinje med Kritisk Sti (15 WBS Pakker)</text>

  <!-- Legend -->
  <rect x="50" y="90" width="1700" height="80" rx="8" fill="#F9FAFB" stroke="#D1D5DB" stroke-width="1"/>

  <rect x="80" y="110" width="60" height="20" rx="4" class="critical-bar"/>
  <text x="150" y="125" class="body-text">Kritisk Sti (3 forhandlingsbare)</text>

  <rect x="400" y="110" width="60" height="20" rx="4" class="non-critical-bar"/>
  <text x="470" y="125" class="body-text">Ikke-kritisk (parallell)</text>

  <rect x="700" y="110" width="60" height="20" rx="4" class="locked-bar"/>
  <text x="770" y="125" class="body-text">Låst pakke (390 MNOK)</text>

  <polygon points="1040,110 1050,120 1040,130 1030,120" class="milestone"/>
  <text x="1060" y="125" class="body-text">Milepæl</text>

  <line x1="1280" y1="120" x2="1340" y2="120" class="today-line"/>
  <text x="1350" y="125" class="body-text">I dag (eksempel)</text>

  <text x="80" y="155" class="small-text">Total varighet: 15 Feb 2025 → 15 Mai 2026 (455 dager tilgjengelig)</text>
  <text x="900" y="155" class="small-text" fill="#EF4444">FRIST: 15 Mai 2026 (UFRAVIKELIG)</text>

  <!-- Timeline Header -->
  <rect x="50" y="190" width="300" height="40" fill="#F3F4F6" stroke="#D1D5DB" stroke-width="1"/>
  <text x="200" y="215" class="heading" text-anchor="middle">WBS Pakke</text>

  <!-- Months timeline (Feb 2025 - Aug 2026) -->
  <rect x="350" y="190" width="1400" height="40" fill="#F3F4F6" stroke="#D1D5DB" stroke-width="1"/>

  <!-- Feb 2025 -->
  <rect x="350" y="190" width="90" height="40" fill="#E0E7FF" stroke="#3B82F6" stroke-width="1"/>
  <text x="395" y="215" class="month-text" text-anchor="middle">Feb 25</text>

  <!-- Mar 2025 -->
  <rect x="440" y="190" width="90" height="40" stroke="#D1D5DB" stroke-width="1"/>
  <text x="485" y="215" class="month-text" text-anchor="middle">Mar 25</text>

  <!-- Apr 2025 -->
  <rect x="530" y="190" width="90" height="40" stroke="#D1D5DB" stroke-width="1"/>
  <text x="575" y="215" class="month-text" text-anchor="middle">Apr 25</text>

  <!-- May 2025 -->
  <rect x="620" y="190" width="90" height="40" stroke="#D1D5DB" stroke-width="1"/>
  <text x="665" y="215" class="month-text" text-anchor="middle">Mai 25</text>

  <!-- Jun 2025 -->
  <rect x="710" y="190" width="90" height="40" stroke="#D1D5DB" stroke-width="1"/>
  <text x="755" y="215" class="month-text" text-anchor="middle">Jun 25</text>

  <!-- Jul 2025 -->
  <rect x="800" y="190" width="90" height="40" stroke="#D1D5DB" stroke-width="1"/>
  <text x="845" y="215" class="month-text" text-anchor="middle">Jul 25</text>

  <!-- Aug 2025 -->
  <rect x="890" y="190" width="90" height="40" stroke="#D1D5DB" stroke-width="1"/>
  <text x="935" y="215" class="month-text" text-anchor="middle">Aug 25</text>

  <!-- Sep-Dec 2025 -->
  <rect x="980" y="190" width="360" height="40" stroke="#D1D5DB" stroke-width="1"/>
  <text x="1160" y="215" class="month-text" text-anchor="middle">Sep-Des 25</text>

  <!-- Jan-Apr 2026 -->
  <rect x="1340" y="190" width="320" height="40" stroke="#D1D5DB" stroke-width="1"/>
  <text x="1500" y="215" class="month-text" text-anchor="middle">Jan-Apr 26</text>

  <!-- May 2026 (Deadline) -->
  <rect x="1660" y="190" width="90" height="40" fill="#FEE2E2" stroke="#EF4444" stroke-width="2"/>
  <text x="1705" y="215" class="month-text" text-anchor="middle" fill="#EF4444">Mai 26</text>

  <!-- Grid lines (months) -->
  <line x1="350" y1="230" x2="350" y2="1100" class="grid-line"/>
  <line x1="440" y1="230" x2="440" y2="1100" class="grid-line"/>
  <line x1="530" y1="230" x2="530" y2="1100" class="grid-line"/>
  <line x1="620" y1="230" x2="620" y2="1100" class="grid-line"/>
  <line x1="710" y1="230" x2="710" y2="1100" class="grid-line"/>
  <line x1="800" y1="230" x2="800" y2="1100" class="grid-line"/>
  <line x1="890" y1="230" x2="890" y2="1100" class="grid-line"/>
  <line x1="980" y1="230" x2="980" y2="1100" class="grid-line"/>
  <line x1="1340" y1="230" x2="1340" y2="1100" class="grid-line"/>
  <line x1="1660" y1="230" x2="1660" y2="1100" class="grid-line"/>
  <line x1="1750" y1="230" x2="1750" y2="1100" class="grid-line"/>

  <!-- CRITICAL PATH (3 packages) - Sequential -->

  <!-- WBS 1.3.1 Grunnarbeid (CRITICAL) -->
  <rect x="50" y="250" width="300" height="40" fill="#FFFFFF" stroke="#D1D5DB" stroke-width="1"/>
  <text x="70" y="275" class="wbs-text" font-weight="600">WBS 1.3.1 Grunnarbeid</text>
  <text x="250" y="275" class="small-text" text-anchor="end">105 MNOK</text>

  <rect x="350" y="255" width="180" height="30" rx="4" class="critical-bar"/>
  <text x="440" y="275" class="small-text" text-anchor="middle" fill="#FFFFFF">60 dager</text>
  <text x="540" y="275" class="small-text">15 Feb - 16 Apr</text>

  <!-- WBS 1.3.2 Fundamentering (CRITICAL) -->
  <rect x="50" y="300" width="300" height="40" fill="#FFFFFF" stroke="#D1D5DB" stroke-width="1"/>
  <text x="70" y="325" class="wbs-text" font-weight="600">WBS 1.3.2 Fundamentering</text>
  <text x="250" y="325" class="small-text" text-anchor="end">60 MNOK</text>

  <rect x="530" y="305" width="135" height="30" rx="4" class="critical-bar"/>
  <text x="597" y="325" class="small-text" text-anchor="middle" fill="#FFFFFF">45 dager</text>
  <text x="675" y="325" class="small-text">17 Apr - 1 Jun</text>

  <!-- WBS 1.4.1 Råbygg (CRITICAL) -->
  <rect x="50" y="350" width="300" height="40" fill="#FFFFFF" stroke="#D1D5DB" stroke-width="1"/>
  <text x="70" y="375" class="wbs-text" font-weight="600">WBS 1.4.1 Råbygg</text>
  <text x="250" y="375" class="small-text" text-anchor="end">180 MNOK</text>

  <rect x="665" y="355" width="270" height="30" rx="4" class="critical-bar"/>
  <text x="800" y="375" class="small-text" text-anchor="middle" fill="#FFFFFF">90 dager</text>
  <text x="945" y="375" class="small-text">2 Jun - 30 Aug</text>

  <!-- Milestone: Critical Path End -->
  <polygon points="935,355 950,370 935,385 920,370" class="milestone"/>
  <text x="960" y="375" class="small-text" fill="#F59E0B">Kritisk sti slutt</text>

  <!-- LOCKED PACKAGES (12 packages, 390 MNOK) - Parallel -->

  <rect x="50" y="410" width="1700" height="30" fill="#F3F4F6" stroke="#D1D5DB" stroke-width="1"/>
  <text x="70" y="430" class="heading">12 Låste Pakker (390 MNOK) - Parallelle aktiviteter</text>

  <!-- Prosjektering -->
  <rect x="50" y="450" width="300" height="30" fill="#FFFFFF" stroke="#D1D5DB" stroke-width="1"/>
  <text x="70" y="470" class="wbs-text">Prosjektering</text>
  <text x="250" y="470" class="small-text" text-anchor="end">30 MNOK</text>
  <rect x="350" y="455" width="90" height="20" rx="3" class="locked-bar"/>
  <text x="395" y="469" class="small-text" text-anchor="middle">30d</text>

  <!-- RIB -->
  <rect x="50" y="490" width="300" height="30" fill="#FFFFFF" stroke="#D1D5DB" stroke-width="1"/>
  <text x="70" y="510" class="wbs-text">RIB</text>
  <text x="250" y="510" class="small-text" text-anchor="end">25 MNOK</text>
  <rect x="350" y="495" width="60" height="20" rx="3" class="locked-bar"/>
  <text x="380" y="509" class="small-text" text-anchor="middle">20d</text>

  <!-- Elektrisk -->
  <rect x="50" y="530" width="300" height="30" fill="#FFFFFF" stroke="#D1D5DB" stroke-width="1"/>
  <text x="70" y="550" class="wbs-text">Elektrisk</text>
  <text x="250" y="550" class="small-text" text-anchor="end">35 MNOK</text>
  <rect x="530" y="535" width="135" height="20" rx="3" class="locked-bar"/>
  <text x="597" y="549" class="small-text" text-anchor="middle">45d</text>

  <!-- VVS -->
  <rect x="50" y="570" width="300" height="30" fill="#FFFFFF" stroke="#D1D5DB" stroke-width="1"/>
  <text x="70" y="590" class="wbs-text">VVS</text>
  <text x="250" y="590" class="small-text" text-anchor="end">40 MNOK</text>
  <rect x="665" y="575" width="180" height="20" rx="3" class="locked-bar"/>
  <text x="755" y="589" class="small-text" text-anchor="middle">60d</text>

  <!-- Rørarbeid -->
  <rect x="50" y="610" width="300" height="30" fill="#FFFFFF" stroke="#D1D5DB" stroke-width="1"/>
  <text x="70" y="630" class="wbs-text">Rørarbeid</text>
  <text x="250" y="630" class="small-text" text-anchor="end">28 MNOK</text>
  <rect x="440" y="615" width="120" height="20" rx="3" class="locked-bar"/>
  <text x="500" y="629" class="small-text" text-anchor="middle">40d</text>

  <!-- Ventilasjon -->
  <rect x="50" y="650" width="300" height="30" fill="#FFFFFF" stroke="#D1D5DB" stroke-width="1"/>
  <text x="70" y="670" class="wbs-text">Ventilasjon</text>
  <text x="250" y="670" class="small-text" text-anchor="end">32 MNOK</text>
  <rect x="710" y="655" width="150" height="20" rx="3" class="locked-bar"/>
  <text x="785" y="669" class="small-text" text-anchor="middle">50d</text>

  <!-- Vinduer og dører -->
  <rect x="50" y="690" width="300" height="30" fill="#FFFFFF" stroke="#D1D5DB" stroke-width="1"/>
  <text x="70" y="710" class="wbs-text">Vinduer og dører</text>
  <text x="250" y="710" class="small-text" text-anchor="end">30 MNOK</text>
  <rect x="620" y="695" width="135" height="20" rx="3" class="locked-bar"/>
  <text x="687" y="709" class="small-text" text-anchor="middle">45d</text>

  <!-- Utvendig kledning -->
  <rect x="50" y="730" width="300" height="30" fill="#FFFFFF" stroke="#D1D5DB" stroke-width="1"/>
  <text x="70" y="750" class="wbs-text">Utvendig kledning</text>
  <text x="250" y="750" class="small-text" text-anchor="end">25 MNOK</text>
  <rect x="800" y="735" width="105" height="20" rx="3" class="locked-bar"/>
  <text x="852" y="749" class="small-text" text-anchor="middle">35d</text>

  <!-- Innvendige vegger -->
  <rect x="50" y="770" width="300" height="30" fill="#FFFFFF" stroke="#D1D5DB" stroke-width="1"/>
  <text x="70" y="790" class="wbs-text">Innvendige vegger</text>
  <text x="250" y="790" class="small-text" text-anchor="end">35 MNOK</text>
  <rect x="890" y="775" width="120" height="20" rx="3" class="locked-bar"/>
  <text x="950" y="789" class="small-text" text-anchor="middle">40d</text>

  <!-- Himlinger -->
  <rect x="50" y="810" width="300" height="30" fill="#FFFFFF" stroke="#D1D5DB" stroke-width="1"/>
  <text x="70" y="830" class="wbs-text">Himlinger</text>
  <text x="250" y="830" class="small-text" text-anchor="end">20 MNOK</text>
  <rect x="980" y="815" width="90" height="20" rx="3" class="locked-bar"/>
  <text x="1025" y="829" class="small-text" text-anchor="middle">30d</text>

  <!-- Gulvbelegg -->
  <rect x="50" y="850" width="300" height="30" fill="#FFFFFF" stroke="#D1D5DB" stroke-width="1"/>
  <text x="70" y="870" class="wbs-text">Gulvbelegg</text>
  <text x="250" y="870" class="small-text" text-anchor="end">22 MNOK</text>
  <rect x="1010" y="855" width="105" height="20" rx="3" class="locked-bar"/>
  <text x="1062" y="869" class="small-text" text-anchor="middle">35d</text>

  <!-- Maling og overflater -->
  <rect x="50" y="890" width="300" height="30" fill="#FFFFFF" stroke="#D1D5DB" stroke-width="1"/>
  <text x="70" y="910" class="wbs-text">Maling og overflater</text>
  <text x="250" y="910" class="small-text" text-anchor="end">18 MNOK</text>
  <rect x="1070" y="895" width="120" height="20" rx="3" class="locked-bar"/>
  <text x="1130" y="909" class="small-text" text-anchor="middle">40d</text>

  <!-- Milestone: Project End (baseline) -->
  <polygon points="935,900 950,915 935,930 920,915" class="milestone"/>
  <text x="960" y="915" class="small-text" fill="#10B981">Baseline prosjektslutt (30 Aug 2025)</text>

  <!-- Deadline marker -->
  <line x1="1705" y1="230" x2="1705" y2="1100" stroke="#EF4444" stroke-width="3" stroke-dasharray="10,5"/>
  <text x="1710" y="250" class="small-text" fill="#EF4444" font-weight="700">FRIST</text>
  <text x="1710" y="265" class="small-text" fill="#EF4444">15 Mai 2026</text>

  <!-- Summary Section -->
  <rect x="50" y="950" width="1700" height="140" rx="8" fill="#F9FAFB" stroke="#D1D5DB" stroke-width="1"/>
  <text x="900" y="980" class="heading" text-anchor="middle">📊 PROSJEKTOVERSIKT</text>

  <text x="80" y="1010" class="body-text" font-weight="600">Kritisk Sti (3 pakker):</text>
  <text x="100" y="1030" class="body-text">• Total varighet: 195 dager (60 + 45 + 90)</text>
  <text x="100" y="1050" class="body-text">• Baseline slutt: 30 August 2025</text>
  <text x="100" y="1070" class="body-text">• Buffer til frist: 260 dager ✅ God margin</text>

  <text x="900" y="1010" class="body-text" font-weight="600">12 Låste Pakker (390 MNOK):</text>
  <text x="920" y="1030" class="body-text">• Parallelle aktiviteter (påvirker ikke kritisk sti)</text>
  <text x="920" y="1050" class="body-text">• Kan kjøre samtidig med kritisk sti</text>
  <text x="920" y="1070" class="body-text">• Allerede kontraktfestet og planlagt</text>

  <!-- Implementation Notes -->
  <rect x="50" y="1120" width="1700" height="240" rx="8" fill="#E0E7FF" stroke="#6366F1" stroke-width="2"/>
  <text x="900" y="1155" class="heading" text-anchor="middle">💻 IMPLEMENTERINGSNOTATER</text>

  <text x="80" y="1190" class="body-text" font-weight="600">Interaktive Funksjoner:</text>
  <text x="100" y="1210" class="body-text">• Zoom in/out på tidslinje</text>
  <text x="100" y="1230" class="body-text">• Klikk på pakke for detaljer (kostnad, varighet, status)</text>
  <text x="100" y="1250" class="body-text">• Vis/skjul ikke-kritiske pakker</text>
  <text x="100" y="1270" class="body-text">• Eksport som PDF eller PNG</text>

  <text x="900" y="1190" class="body-text" font-weight="600">Echtids Oppdatering:</text>
  <text x="920" y="1210" class="body-text">• Når bruker commiter tilbud: Oppdater pakke farge og varighet</text>
  <text x="920" y="1230" class="body-text">• Beregn kritisk sti på nytt hvis varighet endres</text>
  <text x="920" y="1250" class="body-text">• Vis advarsel hvis prosjektslutt > 15 Mai 2026</text>
  <text x="920" y="1270" class="body-text">• Marker "I dag" linje som beveger seg over tid</text>

  <text x="80" y="1300" class="body-text" font-weight="600">Dataformat (for implementering):</text>
  <text x="100" y="1320" class="small-text">ganttData = [ { id: "1.3.1", name: "Grunnarbeid", start: "2025-02-15", duration: 60, cost: 105, critical: true, status: "committed" }, ... ]</text>
  <text x="100" y="1340" class="small-text">Beregn bar posisjon: x = 350 + (days_from_start * pixel_per_day), width = duration * pixel_per_day</text>
</svg>
